<svg width="338" height="186" viewBox="0 0 338 186" fill="none" xmlns="http://www.w3.org/2000/svg">
<g clip-path="url(#clip0_1_617)">
<rect y="20" width="338" height="166" rx="25" fill="#1A2C05" fill-opacity="0.5"/>
<path d="M124.364 129.54V134.2H129.444V135.7H124.364V140.5H130.044V142H122.544V128.04H130.044V129.54H124.364ZM138.518 142L135.918 137.92L133.418 142H131.518L135.058 136.56L131.518 131.04H133.578L136.178 135.1L138.658 131.04H140.558L137.038 136.46L140.578 142H138.518ZM141.688 136.5C141.688 135.367 141.915 134.38 142.368 133.54C142.821 132.687 143.448 132.027 144.248 131.56C145.061 131.093 145.988 130.86 147.028 130.86C148.375 130.86 149.481 131.187 150.348 131.84C151.228 132.493 151.808 133.4 152.088 134.56H150.128C149.941 133.893 149.575 133.367 149.028 132.98C148.495 132.593 147.828 132.4 147.028 132.4C145.988 132.4 145.148 132.76 144.508 133.48C143.868 134.187 143.548 135.193 143.548 136.5C143.548 137.82 143.868 138.84 144.508 139.56C145.148 140.28 145.988 140.64 147.028 140.64C147.828 140.64 148.495 140.453 149.028 140.08C149.561 139.707 149.928 139.173 150.128 138.48H152.088C151.795 139.6 151.208 140.5 150.328 141.18C149.448 141.847 148.348 142.18 147.028 142.18C145.988 142.18 145.061 141.947 144.248 141.48C143.448 141.013 142.821 140.353 142.368 139.5C141.915 138.647 141.688 137.647 141.688 136.5ZM159.957 130.84C160.783 130.84 161.53 131.02 162.197 131.38C162.863 131.727 163.383 132.253 163.757 132.96C164.143 133.667 164.337 134.527 164.337 135.54V142H162.537V135.8C162.537 134.707 162.263 133.873 161.717 133.3C161.17 132.713 160.423 132.42 159.477 132.42C158.517 132.42 157.75 132.72 157.177 133.32C156.617 133.92 156.337 134.793 156.337 135.94V142H154.517V127.2H156.337V132.6C156.697 132.04 157.19 131.607 157.817 131.3C158.457 130.993 159.17 130.84 159.957 130.84ZM166.63 136.48C166.63 135.36 166.856 134.38 167.31 133.54C167.763 132.687 168.383 132.027 169.17 131.56C169.97 131.093 170.856 130.86 171.83 130.86C172.79 130.86 173.623 131.067 174.33 131.48C175.036 131.893 175.563 132.413 175.91 133.04V131.04H177.75V142H175.91V139.96C175.55 140.6 175.01 141.133 174.29 141.56C173.583 141.973 172.756 142.18 171.81 142.18C170.836 142.18 169.956 141.94 169.17 141.46C168.383 140.98 167.763 140.307 167.31 139.44C166.856 138.573 166.63 137.587 166.63 136.48ZM175.91 136.5C175.91 135.673 175.743 134.953 175.41 134.34C175.076 133.727 174.623 133.26 174.05 132.94C173.49 132.607 172.87 132.44 172.19 132.44C171.51 132.44 170.89 132.6 170.33 132.92C169.77 133.24 169.323 133.707 168.99 134.32C168.656 134.933 168.49 135.653 168.49 136.48C168.49 137.32 168.656 138.053 168.99 138.68C169.323 139.293 169.77 139.767 170.33 140.1C170.89 140.42 171.51 140.58 172.19 140.58C172.87 140.58 173.49 140.42 174.05 140.1C174.623 139.767 175.076 139.293 175.41 138.68C175.743 138.053 175.91 137.327 175.91 136.5ZM186.165 130.84C187.498 130.84 188.578 131.247 189.405 132.06C190.232 132.86 190.645 134.02 190.645 135.54V142H188.845V135.8C188.845 134.707 188.572 133.873 188.025 133.3C187.478 132.713 186.732 132.42 185.785 132.42C184.825 132.42 184.058 132.72 183.485 133.32C182.925 133.92 182.645 134.793 182.645 135.94V142H180.825V131.04H182.645V132.6C183.005 132.04 183.492 131.607 184.105 131.3C184.732 130.993 185.418 130.84 186.165 130.84ZM198.138 130.86C199.085 130.86 199.911 131.067 200.618 131.48C201.338 131.893 201.871 132.413 202.218 133.04V131.04H204.058V142.24C204.058 143.24 203.845 144.127 203.418 144.9C202.991 145.687 202.378 146.3 201.578 146.74C200.791 147.18 199.871 147.4 198.818 147.4C197.378 147.4 196.178 147.06 195.218 146.38C194.258 145.7 193.691 144.773 193.518 143.6H195.318C195.518 144.267 195.931 144.8 196.558 145.2C197.185 145.613 197.938 145.82 198.818 145.82C199.818 145.82 200.631 145.507 201.258 144.88C201.898 144.253 202.218 143.373 202.218 142.24V139.94C201.858 140.58 201.325 141.113 200.618 141.54C199.911 141.967 199.085 142.18 198.138 142.18C197.165 142.18 196.278 141.94 195.478 141.46C194.691 140.98 194.071 140.307 193.618 139.44C193.165 138.573 192.938 137.587 192.938 136.48C192.938 135.36 193.165 134.38 193.618 133.54C194.071 132.687 194.691 132.027 195.478 131.56C196.278 131.093 197.165 130.86 198.138 130.86ZM202.218 136.5C202.218 135.673 202.051 134.953 201.718 134.34C201.385 133.727 200.931 133.26 200.358 132.94C199.798 132.607 199.178 132.44 198.498 132.44C197.818 132.44 197.198 132.6 196.638 132.92C196.078 133.24 195.631 133.707 195.298 134.32C194.965 134.933 194.798 135.653 194.798 136.48C194.798 137.32 194.965 138.053 195.298 138.68C195.631 139.293 196.078 139.767 196.638 140.1C197.198 140.42 197.818 140.58 198.498 140.58C199.178 140.58 199.798 140.42 200.358 140.1C200.931 139.767 201.385 139.293 201.718 138.68C202.051 138.053 202.218 137.327 202.218 136.5ZM217.134 136.1C217.134 136.447 217.114 136.813 217.074 137.2H208.314C208.38 138.28 208.747 139.127 209.414 139.74C210.094 140.34 210.914 140.64 211.874 140.64C212.66 140.64 213.314 140.46 213.834 140.1C214.367 139.727 214.74 139.233 214.954 138.62H216.914C216.62 139.673 216.034 140.533 215.154 141.2C214.274 141.853 213.18 142.18 211.874 142.18C210.834 142.18 209.9 141.947 209.074 141.48C208.26 141.013 207.62 140.353 207.154 139.5C206.687 138.633 206.454 137.633 206.454 136.5C206.454 135.367 206.68 134.373 207.134 133.52C207.587 132.667 208.22 132.013 209.034 131.56C209.86 131.093 210.807 130.86 211.874 130.86C212.914 130.86 213.834 131.087 214.634 131.54C215.434 131.993 216.047 132.62 216.474 133.42C216.914 134.207 217.134 135.1 217.134 136.1ZM215.254 135.72C215.254 135.027 215.1 134.433 214.794 133.94C214.487 133.433 214.067 133.053 213.534 132.8C213.014 132.533 212.434 132.4 211.794 132.4C210.874 132.4 210.087 132.693 209.434 133.28C208.794 133.867 208.427 134.68 208.334 135.72H215.254Z" fill="white"/>
<g filter="url(#filter0_f_1_617)">
<circle cx="170" cy="49" r="47" fill="#85FC4F"/>
</g>
</g>
<rect x="0.5" y="20.5" width="337" height="165" rx="24.5" stroke="url(#paint0_linear_1_617)"/>
<path d="M138.678 75.2181L130.345 71.0517C129.32 70.5476 128.066 70.9558 127.55 71.985L123.383 80.3181C122.871 81.3471 123.287 82.5971 124.317 83.1138C124.621 83.2638 124.937 83.3347 125.25 83.3347C126.012 83.3347 126.75 82.9138 127.112 82.1848L130.346 75.7142L136.816 78.9474C137.85 79.4558 139.1 79.0474 139.612 78.0141C140.124 76.9846 139.707 75.7347 138.678 75.2181Z" fill="url(#paint1_linear_1_617)"/>
<path d="M150.262 91.6666C139.562 91.6332 132.721 82.0711 131.487 72.6465C131.333 71.5007 130.217 70.6841 129.15 70.8507C128.004 71.0007 127.204 72.0465 127.35 73.1881C128.817 84.4085 137.154 95.7912 150.241 95.833C150.245 95.833 150.245 95.833 150.249 95.833C151.399 95.833 152.332 94.8996 152.337 93.754C152.341 92.6081 151.407 91.6707 150.262 91.6666Z" fill="url(#paint2_linear_1_617)"/>
<path d="M213.675 16.8741C212.646 16.3741 211.396 16.7782 210.879 17.8074L207.646 24.2781L201.175 21.0448C200.146 20.5407 198.896 20.9489 198.379 21.9782C197.867 23.0072 198.283 24.2572 199.313 24.7739L207.646 28.9404C207.95 29.0904 208.267 29.1613 208.579 29.1613C209.341 29.1613 210.079 28.7404 210.441 28.0029L214.608 19.6699C215.121 18.6406 214.704 17.3907 213.675 16.8741Z" fill="url(#paint3_linear_1_617)"/>
<path d="M210.646 26.8075C209.179 15.5871 200.842 4.20439 187.755 4.1626C187.751 4.1626 187.751 4.1626 187.747 4.1626C186.601 4.1626 185.668 5.09596 185.663 6.24161C185.659 7.38746 186.592 8.32492 187.738 8.32902C198.438 8.36242 205.279 17.9245 206.512 27.3491C206.65 28.399 207.546 29.1615 208.575 29.1615C208.671 29.1615 208.758 29.1574 208.846 29.1449C209.991 28.9949 210.791 27.9491 210.646 26.8075Z" fill="url(#paint4_linear_1_617)"/>
<path d="M173.164 56.2515C173.164 59.2139 176.81 61.7722 181.497 62.3679V50.135C176.81 50.7311 173.164 53.2892 173.164 56.2515Z" fill="url(#paint5_linear_1_617)"/>
<path d="M185.663 66.8013V79.0341C190.355 78.4383 193.996 75.8759 193.996 72.9178C193.996 69.9554 190.351 67.3971 185.663 66.8013Z" fill="url(#paint6_linear_1_617)"/>
<path d="M183.58 29.1699C164.052 29.1699 148.165 45.0567 148.165 64.585C148.165 84.1132 164.052 100 183.58 100C203.108 100 218.995 84.1132 218.995 64.585C218.995 45.0567 203.108 29.1699 183.58 29.1699ZM198.163 72.918C198.163 78.2469 192.809 82.4801 185.663 83.1885V85.4175C185.663 86.5674 184.73 87.5008 183.58 87.5008C182.43 87.5008 181.497 86.5674 181.497 85.4175V83.1885C174.351 82.4801 168.997 78.2471 168.997 72.918C168.997 71.7681 169.931 70.8347 171.081 70.8347C172.231 70.8347 173.164 71.7681 173.164 72.918C173.164 75.8804 176.81 78.4387 181.497 79.0344V66.5224C174.351 65.814 168.997 61.581 168.997 56.2519C168.997 50.9229 174.351 46.6899 181.497 45.9815V43.7525C181.497 42.6025 182.43 41.6692 183.58 41.6692C184.73 41.6692 185.664 42.6025 185.664 43.7525V45.9815C192.809 46.6899 198.163 50.9229 198.163 56.2519C198.163 57.4019 197.23 58.3353 196.08 58.3353C194.93 58.3353 193.996 57.4019 193.996 56.2519C193.996 53.2896 190.351 50.7313 185.663 50.1356V62.6476C192.813 63.3559 198.163 67.589 198.163 72.918Z" fill="url(#paint7_linear_1_617)"/>
<path d="M180.889 25.1364C178.039 10.8245 165.39 0 150.249 0C133.016 0 119 14.016 119 31.2486C119 46.3896 129.82 59.039 144.136 61.8889C144.457 57.185 145.62 52.7143 147.44 48.602C147.278 48.9811 147.078 49.3354 146.924 49.7144C140.407 48.6645 135.666 44.6022 135.666 39.5815V37.4984H133.583C132.433 37.4984 131.499 36.565 131.499 35.4151C131.499 34.2651 132.433 33.3318 133.583 33.3318H135.666V29.1653H133.583C132.433 29.1653 131.499 28.232 131.499 27.082C131.499 25.9321 132.433 24.9989 133.583 24.9989H135.666V22.9156C135.666 17.0743 142.07 12.4995 150.249 12.4995C158.428 12.4995 164.831 17.0743 164.831 22.9156C164.831 24.0656 163.898 24.9989 162.748 24.9989C161.598 24.9989 160.665 24.0656 160.665 22.9156C160.665 19.5283 155.894 16.6659 150.249 16.6659C144.603 16.6659 139.832 19.5283 139.832 22.9156V24.9989H154.415C155.565 24.9989 156.499 25.9323 156.499 27.0822C156.499 28.2322 155.565 29.1655 154.415 29.1655H139.832V33.332H154.415C155.565 33.332 156.499 34.2653 156.499 35.4153C156.499 35.6028 156.44 35.7652 156.394 35.9402C162.877 29.7862 171.414 25.778 180.889 25.1364Z" fill="url(#paint8_linear_1_617)"/>
<path d="M154.939 37.3989C154.768 37.4405 154.601 37.503 154.414 37.503H139.831V39.5863C139.831 42.6737 143.802 45.2945 148.781 45.7445C148.493 46.2694 148.276 46.836 148.018 47.3778C149.805 43.6945 152.151 40.3363 154.939 37.3989Z" fill="url(#paint9_linear_1_617)"/>
<defs>
<filter id="filter0_f_1_617" x="3" y="-118" width="334" height="334" filterUnits="userSpaceOnUse" color-interpolation-filters="sRGB">
<feFlood flood-opacity="0" result="BackgroundImageFix"/>
<feBlend mode="normal" in="SourceGraphic" in2="BackgroundImageFix" result="shape"/>
<feGaussianBlur stdDeviation="60" result="effect1_foregroundBlur_1_617"/>
</filter>
<linearGradient id="paint0_linear_1_617" x1="338" y1="98.6296" x2="48.2858" y2="98.6296" gradientUnits="userSpaceOnUse">
<stop stop-color="#6CFE3A"/>
<stop offset="1" stop-color="#165600"/>
</linearGradient>
<linearGradient id="paint1_linear_1_617" x1="131.498" y1="70.8362" x2="131.498" y2="83.3347" gradientUnits="userSpaceOnUse">
<stop stop-color="#86FC4E"/>
<stop offset="1" stop-color="#21E79D"/>
</linearGradient>
<linearGradient id="paint2_linear_1_617" x1="139.835" y1="70.8291" x2="139.835" y2="95.833" gradientUnits="userSpaceOnUse">
<stop stop-color="#86FC4E"/>
<stop offset="1" stop-color="#21E79D"/>
</linearGradient>
<linearGradient id="paint3_linear_1_617" x1="206.494" y1="16.6604" x2="206.494" y2="29.1613" gradientUnits="userSpaceOnUse">
<stop stop-color="#86FC4E"/>
<stop offset="1" stop-color="#21E79D"/>
</linearGradient>
<linearGradient id="paint4_linear_1_617" x1="198.163" y1="4.1626" x2="198.163" y2="29.1615" gradientUnits="userSpaceOnUse">
<stop stop-color="#86FC4E"/>
<stop offset="1" stop-color="#21E79D"/>
</linearGradient>
<linearGradient id="paint5_linear_1_617" x1="177.331" y1="50.135" x2="177.331" y2="62.3679" gradientUnits="userSpaceOnUse">
<stop stop-color="#86FC4E"/>
<stop offset="1" stop-color="#21E79D"/>
</linearGradient>
<linearGradient id="paint6_linear_1_617" x1="189.83" y1="66.8013" x2="189.83" y2="79.0341" gradientUnits="userSpaceOnUse">
<stop stop-color="#86FC4E"/>
<stop offset="1" stop-color="#21E79D"/>
</linearGradient>
<linearGradient id="paint7_linear_1_617" x1="183.58" y1="29.1699" x2="183.58" y2="100" gradientUnits="userSpaceOnUse">
<stop stop-color="#86FC4E"/>
<stop offset="1" stop-color="#21E79D"/>
</linearGradient>
<linearGradient id="paint8_linear_1_617" x1="149.944" y1="0" x2="149.944" y2="61.8889" gradientUnits="userSpaceOnUse">
<stop stop-color="#86FC4E"/>
<stop offset="1" stop-color="#21E79D"/>
</linearGradient>
<linearGradient id="paint9_linear_1_617" x1="147.385" y1="37.3989" x2="147.385" y2="47.3778" gradientUnits="userSpaceOnUse">
<stop stop-color="#86FC4E"/>
<stop offset="1" stop-color="#21E79D"/>
</linearGradient>
<clipPath id="clip0_1_617">
<rect y="20" width="338" height="166" rx="25" fill="white"/>
</clipPath>
</defs>
</svg>
