<svg width="338" height="186" viewBox="0 0 338 186" fill="none" xmlns="http://www.w3.org/2000/svg">
<g clip-path="url(#clip0_1_618)">
<rect y="20" width="338" height="166" rx="25" fill="#1A2C05" fill-opacity="0.5"/>
<path d="M140.5 142H138.68L131.36 130.9V142H129.54V128.04H131.36L138.68 139.12V128.04H140.5V142ZM153.603 136.1C153.603 136.447 153.583 136.813 153.543 137.2H144.783C144.849 138.28 145.216 139.127 145.883 139.74C146.563 140.34 147.383 140.64 148.343 140.64C149.129 140.64 149.783 140.46 150.303 140.1C150.836 139.727 151.209 139.233 151.423 138.62H153.383C153.089 139.673 152.503 140.533 151.623 141.2C150.743 141.853 149.649 142.18 148.343 142.18C147.303 142.18 146.369 141.947 145.543 141.48C144.729 141.013 144.089 140.353 143.623 139.5C143.156 138.633 142.923 137.633 142.923 136.5C142.923 135.367 143.149 134.373 143.603 133.52C144.056 132.667 144.689 132.013 145.503 131.56C146.329 131.093 147.276 130.86 148.343 130.86C149.383 130.86 150.303 131.087 151.103 131.54C151.903 131.993 152.516 132.62 152.943 133.42C153.383 134.207 153.603 135.1 153.603 136.1ZM151.723 135.72C151.723 135.027 151.569 134.433 151.263 133.94C150.956 133.433 150.536 133.053 150.003 132.8C149.483 132.533 148.903 132.4 148.263 132.4C147.343 132.4 146.556 132.693 145.903 133.28C145.263 133.867 144.896 134.68 144.803 135.72H151.723ZM158.225 132.54V139C158.225 139.533 158.338 139.913 158.565 140.14C158.792 140.353 159.185 140.46 159.745 140.46H161.085V142H159.445C158.432 142 157.672 141.767 157.165 141.3C156.658 140.833 156.405 140.067 156.405 139V132.54H154.985V131.04H156.405V128.28H158.225V131.04H161.085V132.54H158.225ZM177.89 131.04L174.47 142H172.59L169.95 133.3L167.31 142H165.43L161.99 131.04H163.85L166.37 140.24L169.09 131.04H170.95L173.61 140.26L176.09 131.04H177.89ZM184.476 142.18C183.45 142.18 182.516 141.947 181.676 141.48C180.85 141.013 180.196 140.353 179.716 139.5C179.25 138.633 179.016 137.633 179.016 136.5C179.016 135.38 179.256 134.393 179.736 133.54C180.23 132.673 180.896 132.013 181.736 131.56C182.576 131.093 183.516 130.86 184.556 130.86C185.596 130.86 186.536 131.093 187.376 131.56C188.216 132.013 188.876 132.667 189.356 133.52C189.85 134.373 190.096 135.367 190.096 136.5C190.096 137.633 189.843 138.633 189.336 139.5C188.843 140.353 188.17 141.013 187.316 141.48C186.463 141.947 185.516 142.18 184.476 142.18ZM184.476 140.58C185.13 140.58 185.743 140.427 186.316 140.12C186.89 139.813 187.35 139.353 187.696 138.74C188.056 138.127 188.236 137.38 188.236 136.5C188.236 135.62 188.063 134.873 187.716 134.26C187.37 133.647 186.916 133.193 186.356 132.9C185.796 132.593 185.19 132.44 184.536 132.44C183.87 132.44 183.256 132.593 182.696 132.9C182.15 133.193 181.71 133.647 181.376 134.26C181.043 134.873 180.876 135.62 180.876 136.5C180.876 137.393 181.036 138.147 181.356 138.76C181.69 139.373 182.13 139.833 182.676 140.14C183.223 140.433 183.823 140.58 184.476 140.58ZM194.309 132.82C194.629 132.193 195.083 131.707 195.669 131.36C196.269 131.013 196.996 130.84 197.849 130.84V132.72H197.369C195.329 132.72 194.309 133.827 194.309 136.04V142H192.489V131.04H194.309V132.82ZM206.07 142L201.77 137.16V142H199.95V127.2H201.77V135.9L205.99 131.04H208.53L203.37 136.5L208.55 142H206.07Z" fill="white"/>
<g filter="url(#filter0_f_1_618)">
<circle cx="170" cy="49" r="45" fill="#4977FF"/>
</g>
</g>
<rect x="0.5" y="20.5" width="337" height="165" rx="24.5" stroke="url(#paint0_linear_1_618)"/>
<path d="M160.064 78.5133C155.15 83.4278 155.15 91.4 160.064 96.3148C164.981 101.229 172.952 101.229 177.868 96.3148C182.782 91.4 182.782 83.4278 177.868 78.5133C172.952 73.5984 164.981 73.5984 160.064 78.5133Z" fill="url(#paint1_linear_1_618)"/>
<path d="M168.967 48.5774C158.596 48.5774 148.839 52.617 141.51 59.9536C138.631 62.8317 138.631 67.4964 141.51 70.3727C144.387 73.2507 149.05 73.2507 151.929 70.3727C156.475 65.8201 162.528 63.3138 168.967 63.3138C175.406 63.3138 181.459 65.8201 186.005 70.3727C187.446 71.8117 189.336 72.531 191.216 72.531C193.106 72.531 194.986 71.8117 196.424 70.3727C199.303 67.4964 199.303 62.8319 196.424 59.9536C189.094 52.617 179.338 48.5774 168.967 48.5774Z" fill="url(#paint2_linear_1_618)"/>
<path d="M168.967 24.3157C152.111 24.3157 136.266 30.8799 124.35 42.7974C121.473 45.6754 121.473 50.3407 124.35 53.2165C127.229 56.0945 131.895 56.0945 134.769 53.2165C143.902 44.0812 156.048 39.0511 168.966 39.0511C181.879 39.0511 194.026 44.0812 203.159 53.2165C204.597 54.6558 206.487 55.3753 208.367 55.3753C210.257 55.3753 212.139 54.6558 213.578 53.2165C216.455 50.3407 216.455 45.6754 213.578 42.7974C201.662 30.8799 185.822 24.3157 168.967 24.3157Z" fill="url(#paint3_linear_1_618)"/>
<path d="M230.775 25.6053C214.268 9.09226 192.319 0 168.967 0C145.614 0 123.665 9.09226 107.158 25.6053C104.281 28.4836 104.281 33.149 107.158 36.0247C108.599 37.4637 110.484 38.1827 112.368 38.1827C114.253 38.1827 116.144 37.4637 117.577 36.0247C131.301 22.2954 149.554 14.7357 168.967 14.7357C188.379 14.7357 206.627 22.2954 220.352 36.0247C223.228 38.9027 227.891 38.9002 230.771 36.0273C233.647 33.149 233.647 28.4836 230.775 25.6053Z" fill="url(#paint4_linear_1_618)"/>
<defs>
<filter id="filter0_f_1_618" x="5" y="-116" width="330" height="330" filterUnits="userSpaceOnUse" color-interpolation-filters="sRGB">
<feFlood flood-opacity="0" result="BackgroundImageFix"/>
<feBlend mode="normal" in="SourceGraphic" in2="BackgroundImageFix" result="shape"/>
<feGaussianBlur stdDeviation="60" result="effect1_foregroundBlur_1_618"/>
</filter>
<linearGradient id="paint0_linear_1_618" x1="338" y1="98.6296" x2="48.2858" y2="98.6296" gradientUnits="userSpaceOnUse">
<stop stop-color="#6CFE3A"/>
<stop offset="1" stop-color="#165600"/>
</linearGradient>
<linearGradient id="paint1_linear_1_618" x1="168.966" y1="74.8271" x2="168.966" y2="100" gradientUnits="userSpaceOnUse">
<stop stop-color="#0E49EE"/>
<stop offset="1" stop-color="#5F81FF"/>
</linearGradient>
<linearGradient id="paint2_linear_1_618" x1="168.967" y1="48.5774" x2="168.967" y2="72.5312" gradientUnits="userSpaceOnUse">
<stop stop-color="#0E49EE"/>
<stop offset="1" stop-color="#5F81FF"/>
</linearGradient>
<linearGradient id="paint3_linear_1_618" x1="168.964" y1="24.3157" x2="168.964" y2="55.3753" gradientUnits="userSpaceOnUse">
<stop stop-color="#0E49EE"/>
<stop offset="1" stop-color="#5F81FF"/>
</linearGradient>
<linearGradient id="paint4_linear_1_618" x1="168.964" y1="0" x2="168.964" y2="38.1827" gradientUnits="userSpaceOnUse">
<stop stop-color="#0E49EE"/>
<stop offset="1" stop-color="#5F81FF"/>
</linearGradient>
<clipPath id="clip0_1_618">
<rect y="20" width="338" height="166" rx="25" fill="white"/>
</clipPath>
</defs>
</svg>
