<svg width="338" height="186" viewBox="0 0 338 186" fill="none" xmlns="http://www.w3.org/2000/svg">
<g clip-path="url(#clip0_1_616)">
<rect y="20" width="338" height="166" rx="25" fill="#1A2C05" fill-opacity="0.5"/>
<path d="M94.4227 128.06V129.54H90.6227V142H88.8027V129.54H84.9827V128.06H94.4227ZM98.483 132.82C98.803 132.193 99.2564 131.707 99.843 131.36C100.443 131.013 101.17 130.84 102.023 130.84V132.72H101.543C99.503 132.72 98.483 133.827 98.483 136.04V142H96.663V131.04H98.483V132.82ZM103.444 136.48C103.444 135.36 103.671 134.38 104.124 133.54C104.577 132.687 105.197 132.027 105.984 131.56C106.784 131.093 107.671 130.86 108.644 130.86C109.604 130.86 110.437 131.067 111.144 131.48C111.851 131.893 112.377 132.413 112.724 133.04V131.04H114.564V142H112.724V139.96C112.364 140.6 111.824 141.133 111.104 141.56C110.397 141.973 109.571 142.18 108.624 142.18C107.651 142.18 106.771 141.94 105.984 141.46C105.197 140.98 104.577 140.307 104.124 139.44C103.671 138.573 103.444 137.587 103.444 136.48ZM112.724 136.5C112.724 135.673 112.557 134.953 112.224 134.34C111.891 133.727 111.437 133.26 110.864 132.94C110.304 132.607 109.684 132.44 109.004 132.44C108.324 132.44 107.704 132.6 107.144 132.92C106.584 133.24 106.137 133.707 105.804 134.32C105.471 134.933 105.304 135.653 105.304 136.48C105.304 137.32 105.471 138.053 105.804 138.68C106.137 139.293 106.584 139.767 107.144 140.1C107.704 140.42 108.324 140.58 109.004 140.58C109.684 140.58 110.304 140.42 110.864 140.1C111.437 139.767 111.891 139.293 112.224 138.68C112.557 138.053 112.724 137.327 112.724 136.5ZM122.98 130.84C124.313 130.84 125.393 131.247 126.22 132.06C127.046 132.86 127.46 134.02 127.46 135.54V142H125.66V135.8C125.66 134.707 125.386 133.873 124.84 133.3C124.293 132.713 123.546 132.42 122.6 132.42C121.64 132.42 120.873 132.72 120.3 133.32C119.74 133.92 119.46 134.793 119.46 135.94V142H117.64V131.04H119.46V132.6C119.82 132.04 120.306 131.607 120.92 131.3C121.546 130.993 122.233 130.84 122.98 130.84ZM129.753 136.48C129.753 135.36 129.979 134.38 130.433 133.54C130.886 132.687 131.506 132.027 132.293 131.56C133.093 131.093 133.986 130.86 134.973 130.86C135.826 130.86 136.619 131.06 137.353 131.46C138.086 131.847 138.646 132.36 139.033 133V127.2H140.873V142H139.033V139.94C138.673 140.593 138.139 141.133 137.433 141.56C136.726 141.973 135.899 142.18 134.953 142.18C133.979 142.18 133.093 141.94 132.293 141.46C131.506 140.98 130.886 140.307 130.433 139.44C129.979 138.573 129.753 137.587 129.753 136.48ZM139.033 136.5C139.033 135.673 138.866 134.953 138.533 134.34C138.199 133.727 137.746 133.26 137.173 132.94C136.613 132.607 135.993 132.44 135.313 132.44C134.633 132.44 134.013 132.6 133.453 132.92C132.893 133.24 132.446 133.707 132.113 134.32C131.779 134.933 131.613 135.653 131.613 136.48C131.613 137.32 131.779 138.053 132.113 138.68C132.446 139.293 132.893 139.767 133.453 140.1C134.013 140.42 134.633 140.58 135.313 140.58C135.993 140.58 136.613 140.42 137.173 140.1C137.746 139.767 138.199 139.293 138.533 138.68C138.866 138.053 139.033 137.327 139.033 136.5ZM144.888 129.26C144.542 129.26 144.248 129.14 144.008 128.9C143.768 128.66 143.648 128.367 143.648 128.02C143.648 127.673 143.768 127.38 144.008 127.14C144.248 126.9 144.542 126.78 144.888 126.78C145.222 126.78 145.502 126.9 145.728 127.14C145.968 127.38 146.088 127.673 146.088 128.02C146.088 128.367 145.968 128.66 145.728 128.9C145.502 129.14 145.222 129.26 144.888 129.26ZM145.768 131.04V142H143.948V131.04H145.768ZM154.21 130.84C155.543 130.84 156.623 131.247 157.45 132.06C158.277 132.86 158.69 134.02 158.69 135.54V142H156.89V135.8C156.89 134.707 156.617 133.873 156.07 133.3C155.523 132.713 154.777 132.42 153.83 132.42C152.87 132.42 152.103 132.72 151.53 133.32C150.97 133.92 150.69 134.793 150.69 135.94V142H148.87V131.04H150.69V132.6C151.05 132.04 151.537 131.607 152.15 131.3C152.777 130.993 153.463 130.84 154.21 130.84ZM166.183 130.86C167.13 130.86 167.956 131.067 168.663 131.48C169.383 131.893 169.916 132.413 170.263 133.04V131.04H172.103V142.24C172.103 143.24 171.89 144.127 171.463 144.9C171.036 145.687 170.423 146.3 169.623 146.74C168.836 147.18 167.916 147.4 166.863 147.4C165.423 147.4 164.223 147.06 163.263 146.38C162.303 145.7 161.736 144.773 161.563 143.6H163.363C163.563 144.267 163.976 144.8 164.603 145.2C165.23 145.613 165.983 145.82 166.863 145.82C167.863 145.82 168.676 145.507 169.303 144.88C169.943 144.253 170.263 143.373 170.263 142.24V139.94C169.903 140.58 169.37 141.113 168.663 141.54C167.956 141.967 167.13 142.18 166.183 142.18C165.21 142.18 164.323 141.94 163.523 141.46C162.736 140.98 162.116 140.307 161.663 139.44C161.21 138.573 160.983 137.587 160.983 136.48C160.983 135.36 161.21 134.38 161.663 133.54C162.116 132.687 162.736 132.027 163.523 131.56C164.323 131.093 165.21 130.86 166.183 130.86ZM170.263 136.5C170.263 135.673 170.096 134.953 169.763 134.34C169.43 133.727 168.976 133.26 168.403 132.94C167.843 132.607 167.223 132.44 166.543 132.44C165.863 132.44 165.243 132.6 164.683 132.92C164.123 133.24 163.676 133.707 163.343 134.32C163.01 134.933 162.843 135.653 162.843 136.48C162.843 137.32 163.01 138.053 163.343 138.68C163.676 139.293 164.123 139.767 164.683 140.1C165.243 140.42 165.863 140.58 166.543 140.58C167.223 140.58 167.843 140.42 168.403 140.1C168.976 139.767 169.43 139.293 169.763 138.68C170.096 138.053 170.263 137.327 170.263 136.5ZM184.591 140.32L187.991 131.04H189.931L185.631 142H183.511L179.211 131.04H181.171L184.591 140.32ZM196.502 142.18C195.475 142.18 194.542 141.947 193.702 141.48C192.875 141.013 192.222 140.353 191.742 139.5C191.275 138.633 191.042 137.633 191.042 136.5C191.042 135.38 191.282 134.393 191.762 133.54C192.255 132.673 192.922 132.013 193.762 131.56C194.602 131.093 195.542 130.86 196.582 130.86C197.622 130.86 198.562 131.093 199.402 131.56C200.242 132.013 200.902 132.667 201.382 133.52C201.875 134.373 202.122 135.367 202.122 136.5C202.122 137.633 201.868 138.633 201.362 139.5C200.868 140.353 200.195 141.013 199.342 141.48C198.488 141.947 197.542 142.18 196.502 142.18ZM196.502 140.58C197.155 140.58 197.768 140.427 198.342 140.12C198.915 139.813 199.375 139.353 199.722 138.74C200.082 138.127 200.262 137.38 200.262 136.5C200.262 135.62 200.088 134.873 199.742 134.26C199.395 133.647 198.942 133.193 198.382 132.9C197.822 132.593 197.215 132.44 196.562 132.44C195.895 132.44 195.282 132.593 194.722 132.9C194.175 133.193 193.735 133.647 193.402 134.26C193.068 134.873 192.902 135.62 192.902 136.5C192.902 137.393 193.062 138.147 193.382 138.76C193.715 139.373 194.155 139.833 194.702 140.14C195.248 140.433 195.848 140.58 196.502 140.58ZM206.335 127.2V142H204.515V127.2H206.335ZM219.156 131.04V142H217.336V140.38C216.99 140.94 216.503 141.38 215.876 141.7C215.263 142.007 214.583 142.16 213.836 142.16C212.983 142.16 212.216 141.987 211.536 141.64C210.856 141.28 210.316 140.747 209.916 140.04C209.53 139.333 209.336 138.473 209.336 137.46V131.04H211.136V137.22C211.136 138.3 211.41 139.133 211.956 139.72C212.503 140.293 213.25 140.58 214.196 140.58C215.17 140.58 215.936 140.28 216.496 139.68C217.056 139.08 217.336 138.207 217.336 137.06V131.04H219.156ZM235.409 130.84C236.263 130.84 237.023 131.02 237.689 131.38C238.356 131.727 238.883 132.253 239.269 132.96C239.656 133.667 239.849 134.527 239.849 135.54V142H238.049V135.8C238.049 134.707 237.776 133.873 237.229 133.3C236.696 132.713 235.969 132.42 235.049 132.42C234.103 132.42 233.349 132.727 232.789 133.34C232.229 133.94 231.949 134.813 231.949 135.96V142H230.149V135.8C230.149 134.707 229.876 133.873 229.329 133.3C228.796 132.713 228.069 132.42 227.149 132.42C226.203 132.42 225.449 132.727 224.889 133.34C224.329 133.94 224.049 134.813 224.049 135.96V142H222.229V131.04H224.049V132.62C224.409 132.047 224.889 131.607 225.489 131.3C226.103 130.993 226.776 130.84 227.509 130.84C228.429 130.84 229.243 131.047 229.949 131.46C230.656 131.873 231.183 132.48 231.529 133.28C231.836 132.507 232.343 131.907 233.049 131.48C233.756 131.053 234.543 130.84 235.409 130.84ZM252.835 136.1C252.835 136.447 252.815 136.813 252.775 137.2H244.015C244.082 138.28 244.448 139.127 245.115 139.74C245.795 140.34 246.615 140.64 247.575 140.64C248.362 140.64 249.015 140.46 249.535 140.1C250.068 139.727 250.442 139.233 250.655 138.62H252.615C252.322 139.673 251.735 140.533 250.855 141.2C249.975 141.853 248.882 142.18 247.575 142.18C246.535 142.18 245.602 141.947 244.775 141.48C243.962 141.013 243.322 140.353 242.855 139.5C242.388 138.633 242.155 137.633 242.155 136.5C242.155 135.367 242.382 134.373 242.835 133.52C243.288 132.667 243.922 132.013 244.735 131.56C245.562 131.093 246.508 130.86 247.575 130.86C248.615 130.86 249.535 131.087 250.335 131.54C251.135 131.993 251.748 132.62 252.175 133.42C252.615 134.207 252.835 135.1 252.835 136.1ZM250.955 135.72C250.955 135.027 250.802 134.433 250.495 133.94C250.188 133.433 249.768 133.053 249.235 132.8C248.715 132.533 248.135 132.4 247.495 132.4C246.575 132.4 245.788 132.693 245.135 133.28C244.495 133.867 244.128 134.68 244.035 135.72H250.955Z" fill="white"/>
<g filter="url(#filter0_f_1_616)">
<circle cx="170" cy="49" r="54" fill="#D8507E"/>
</g>
</g>
<rect x="0.5" y="20.5" width="337" height="165" rx="24.5" stroke="url(#paint0_linear_1_616)"/>
<path fill-rule="evenodd" clip-rule="evenodd" d="M214.347 0H230.725C232.162 0 233.333 0.913008 233.333 2.03252V97.9675C233.333 99.087 232.162 100 230.725 100H214.347C212.91 100 211.738 99.087 211.738 97.9675V2.03252C211.738 0.913008 212.91 0 214.347 0ZM107.608 60.2415H123.987C125.423 60.2415 126.595 61.1545 126.595 62.274V97.9675C126.595 99.087 125.423 100 123.987 100H107.608C106.172 100 105 99.087 105 97.9675V62.274C105 61.1545 106.172 60.2415 107.608 60.2415ZM143.188 40.161H159.566C161.003 40.161 162.174 41.074 162.174 42.1935V97.9675C162.174 99.087 161.003 100 159.566 100C154.107 100 148.647 100 143.188 100C141.751 100 140.579 99.087 140.579 97.9675C140.579 79.376 140.579 60.7848 140.579 42.1935C140.58 41.074 141.751 40.161 143.188 40.161ZM178.767 20.0805H195.145C196.582 20.0805 197.754 20.9935 197.754 22.113V97.9675C197.754 99.087 196.582 100 195.145 100C189.686 100 184.227 100 178.767 100C177.33 100 176.159 99.087 176.159 97.9675C176.159 72.6825 176.159 47.3978 176.159 22.113C176.159 20.9935 177.331 20.0805 178.767 20.0805Z" fill="url(#paint1_linear_1_616)"/>
<defs>
<filter id="filter0_f_1_616" x="-4" y="-125" width="348" height="348" filterUnits="userSpaceOnUse" color-interpolation-filters="sRGB">
<feFlood flood-opacity="0" result="BackgroundImageFix"/>
<feBlend mode="normal" in="SourceGraphic" in2="BackgroundImageFix" result="shape"/>
<feGaussianBlur stdDeviation="60" result="effect1_foregroundBlur_1_616"/>
</filter>
<linearGradient id="paint0_linear_1_616" x1="338" y1="98.6296" x2="48.2858" y2="98.6296" gradientUnits="userSpaceOnUse">
<stop stop-color="#6CFE3A"/>
<stop offset="1" stop-color="#165600"/>
</linearGradient>
<linearGradient id="paint1_linear_1_616" x1="169.167" y1="0" x2="169.167" y2="100" gradientUnits="userSpaceOnUse">
<stop stop-color="#F16979"/>
<stop offset="1" stop-color="#C33C83"/>
</linearGradient>
<clipPath id="clip0_1_616">
<rect y="20" width="338" height="166" rx="25" fill="white"/>
</clipPath>
</defs>
</svg>
